<svg width="40" height="40" viewBox="0 0 40 40" fill="none" xmlns="http://www.w3.org/2000/svg">
<g clip-path="url(#clip0_630_4896)">
<circle cx="20" cy="20" r="20" fill="#FFFFF3"/>
</g>
<path d="M25.3512 17.4175L24.9479 20.3618H20.103V30.6669H17.1587V20.3618H12.7423V17.4175H17.1587V14.719C17.1587 10.9754 19.4582 8.55515 23.0193 8.55515C24.5445 8.55515 25.4955 8.63613 26.0446 8.70973L26.0019 11.498L23.7377 11.5024C23.6759 11.4965 22.2008 11.3817 21.1365 12.3592C20.4505 12.9878 20.103 13.8917 20.103 15.0429V17.4175L25.3512 17.4175ZM22.1243 13.4501C22.6904 12.9227 23.5651 12.9662 23.6683 12.9713C23.6708 12.9714 23.6729 12.9715 23.6745 12.9716L27.452 12.9701L27.533 7.52171L26.9647 7.38185C26.5996 7.29207 25.4823 7.08301 23.0193 7.08301C18.6338 7.08301 15.6866 10.1524 15.6866 14.719V15.9454H11.2701V21.834H15.6866V32.139H21.5752V21.834H26.2301L27.0383 15.9454H21.5752V15.0429C21.5752 14.326 21.7607 13.7901 22.1243 13.4501Z" fill="#526B43"/>
<path d="M25.3512 17.4175L24.9479 20.3618H20.103V30.6669H17.1587V20.3618H12.7423V17.4175H17.1587V14.719C17.1587 10.9754 19.4582 8.55515 23.0193 8.55515C24.5445 8.55515 25.4955 8.63613 26.0446 8.70973L26.0019 11.498L23.7377 11.5024C23.6759 11.4965 22.2008 11.3817 21.1365 12.3592C20.4505 12.9878 20.103 13.8917 20.103 15.0429V17.4175L25.3512 17.4175ZM22.1243 13.4501C22.6904 12.9227 23.5651 12.9662 23.6683 12.9713C23.6708 12.9714 23.6729 12.9715 23.6745 12.9716L27.452 12.9701L27.533 7.52171L26.9647 7.38185C26.5996 7.29207 25.4823 7.08301 23.0193 7.08301C18.6338 7.08301 15.6866 10.1524 15.6866 14.719V15.9454H11.2701V21.834H15.6866V32.139H21.5752V21.834H26.2301L27.0383 15.9454H21.5752V15.0429C21.5752 14.326 21.7607 13.7901 22.1243 13.4501Z" stroke="#526B43"/>
<defs>
<clipPath id="clip0_630_4896">
<rect width="40" height="40" fill="white"/>
</clipPath>
</defs>
</svg>
