<svg width="40" height="40" viewBox="0 0 40 40" fill="none" xmlns="http://www.w3.org/2000/svg">
<circle cx="20" cy="20" r="20" fill="#526B43"/>
<path fill-rule="evenodd" clip-rule="evenodd" d="M13.7791 8C10.5874 8 8 10.5874 8 13.7791V26.3374C8 29.5291 10.5874 32.1165 13.7791 32.1165H26.3374C29.5291 32.1165 32.1165 29.5291 32.1165 26.3374V13.7791C32.1165 10.5874 29.5291 8 26.3374 8H13.7791ZM7 13.7791C7 10.0351 10.0351 7 13.7791 7H26.3374C30.0814 7 33.1165 10.0351 33.1165 13.7791V26.3374C33.1165 30.0814 30.0814 33.1165 26.3374 33.1165H13.7791C10.0351 33.1165 7 30.0814 7 26.3374V13.7791ZM20.7763 15.5293C19.8352 15.3898 18.874 15.5505 18.0295 15.9887C17.185 16.4269 16.5002 17.1202 16.0724 17.9701C15.6447 18.8199 15.4958 19.783 15.6469 20.7223C15.7981 21.6616 16.2416 22.5294 16.9143 23.2022C17.5871 23.8749 18.4548 24.3184 19.3942 24.4696C20.3335 24.6207 21.2966 24.4718 22.1464 24.0441C22.9963 23.6163 23.6896 22.9315 24.1278 22.087C24.566 21.2425 24.7267 20.2813 24.5872 19.3402C24.4448 18.3802 23.9975 17.4915 23.3112 16.8052C22.625 16.119 21.7363 15.6717 20.7763 15.5293ZM17.5689 15.1011C18.6001 14.566 19.7738 14.3697 20.923 14.5401C22.0952 14.714 23.1804 15.2602 24.0184 16.0981C24.8563 16.9361 25.4025 18.0213 25.5763 19.1935C25.7468 20.3427 25.5505 21.5164 25.0154 22.5476C24.4803 23.5788 23.6337 24.415 22.596 24.9373C21.5583 25.4596 20.3823 25.6414 19.2353 25.4569C18.0883 25.2723 17.0287 24.7307 16.2072 23.9093C15.3857 23.0878 14.8442 22.0282 14.6596 20.8812C14.4751 19.7342 14.6569 18.5582 15.1792 17.5205C15.7015 16.4828 16.5377 15.6362 17.5689 15.1011ZM26.9653 12.6512C26.6892 12.6512 26.4653 12.8751 26.4653 13.1512C26.4653 13.4274 26.6892 13.6512 26.9653 13.6512H26.9797C27.2558 13.6512 27.4797 13.4274 27.4797 13.1512C27.4797 12.8751 27.2558 12.6512 26.9797 12.6512H26.9653Z" fill="#FFFFF3"/>
<path d="M18.0295 15.9887L18.3058 16.5213L18.3058 16.5213L18.0295 15.9887ZM20.7763 15.5293L20.6883 16.1228L20.6883 16.1228L20.7763 15.5293ZM16.0724 17.9701L16.6084 18.2398L16.6084 18.2398L16.0724 17.9701ZM15.6469 20.7223L16.2393 20.627L16.2393 20.627L15.6469 20.7223ZM16.9143 23.2022L16.4901 23.6264L16.4901 23.6264L16.9143 23.2022ZM22.1464 24.0441L22.4162 24.58L22.4162 24.58L22.1464 24.0441ZM24.1278 22.087L24.6603 22.3633L24.6603 22.3633L24.1278 22.087ZM24.5872 19.3402L23.9937 19.4282L23.9937 19.4282L24.5872 19.3402ZM23.3112 16.8052L23.7355 16.381L23.7355 16.381L23.3112 16.8052ZM20.923 14.5401L20.835 15.1336L20.835 15.1336L20.923 14.5401ZM17.5689 15.1011L17.8453 15.6337L17.5689 15.1011ZM25.5763 19.1935L24.9828 19.2815L24.9828 19.2815L25.5763 19.1935ZM25.0154 22.5476L24.4828 22.2712L24.4828 22.2712L25.0154 22.5476ZM22.596 24.9373L22.8658 25.4732L22.8658 25.4732L22.596 24.9373ZM19.2353 25.4569L19.3306 24.8645L19.3306 24.8645L19.2353 25.4569ZM14.6596 20.8812L15.252 20.7859L15.252 20.7859L14.6596 20.8812ZM15.1792 17.5205L15.7151 17.7902L15.7151 17.7902L15.1792 17.5205ZM8.6 13.7791C8.6 10.9188 10.9188 8.6 13.7791 8.6V7.4C10.256 7.4 7.4 10.256 7.4 13.7791H8.6ZM8.6 26.3374V13.7791H7.4V26.3374H8.6ZM13.7791 31.5165C10.9188 31.5165 8.6 29.1978 8.6 26.3374H7.4C7.4 29.8605 10.256 32.7165 13.7791 32.7165V31.5165ZM26.3374 31.5165H13.7791V32.7165H26.3374V31.5165ZM31.5165 26.3374C31.5165 29.1978 29.1978 31.5165 26.3374 31.5165V32.7165C29.8605 32.7165 32.7165 29.8605 32.7165 26.3374H31.5165ZM31.5165 13.7791V26.3374H32.7165V13.7791H31.5165ZM26.3374 8.6C29.1978 8.6 31.5165 10.9188 31.5165 13.7791H32.7165C32.7165 10.256 29.8605 7.4 26.3374 7.4V8.6ZM13.7791 8.6H26.3374V7.4H13.7791V8.6ZM13.7791 6.4C9.70375 6.4 6.4 9.70375 6.4 13.7791H7.6C7.6 10.3665 10.3665 7.6 13.7791 7.6V6.4ZM26.3374 6.4H13.7791V7.6H26.3374V6.4ZM33.7165 13.7791C33.7165 9.70375 30.4128 6.4 26.3374 6.4V7.6C29.75 7.6 32.5165 10.3665 32.5165 13.7791H33.7165ZM33.7165 26.3374V13.7791H32.5165V26.3374H33.7165ZM26.3374 33.7165C30.4128 33.7165 33.7165 30.4128 33.7165 26.3374H32.5165C32.5165 29.75 29.75 32.5165 26.3374 32.5165V33.7165ZM13.7791 33.7165H26.3374V32.5165H13.7791V33.7165ZM6.4 26.3374C6.4 30.4128 9.70375 33.7165 13.7791 33.7165V32.5165C10.3665 32.5165 7.6 29.75 7.6 26.3374H6.4ZM6.4 13.7791V26.3374H7.6V13.7791H6.4ZM18.3058 16.5213C19.0383 16.1412 19.872 16.0018 20.6883 16.1228L20.8643 14.9358C19.7983 14.7777 18.7097 14.9598 17.7531 15.4561L18.3058 16.5213ZM16.6084 18.2398C16.9794 17.5027 17.5733 16.9013 18.3058 16.5213L17.7531 15.4561C16.7966 15.9524 16.021 16.7377 15.5365 17.7003L16.6084 18.2398ZM16.2393 20.627C16.1082 19.8123 16.2373 18.9769 16.6084 18.2398L15.5365 17.7003C15.052 18.6629 14.8833 19.7537 15.0545 20.8176L16.2393 20.627ZM17.3386 22.7779C16.7551 22.1944 16.3704 21.4417 16.2393 20.627L15.0545 20.8176C15.2257 21.8816 15.7281 22.8644 16.4901 23.6264L17.3386 22.7779ZM19.4895 23.8772C18.6748 23.7461 17.9221 23.3614 17.3386 22.7779L16.4901 23.6264C17.2521 24.3884 18.2349 24.8907 19.2988 25.0619L19.4895 23.8772ZM21.8767 23.5081C21.1396 23.8791 20.3042 24.0083 19.4895 23.8772L19.2988 25.0619C20.3628 25.2331 21.4536 25.0645 22.4162 24.58L21.8767 23.5081ZM23.5952 21.8107C23.2151 22.5431 22.6138 23.1371 21.8767 23.5081L22.4162 24.58C23.3787 24.0955 24.164 23.3199 24.6603 22.3633L23.5952 21.8107ZM23.9937 19.4282C24.1147 20.2445 23.9753 21.0782 23.5952 21.8107L24.6603 22.3633C25.1567 21.4068 25.3387 20.3182 25.1807 19.2522L23.9937 19.4282ZM22.887 17.2295C23.4822 17.8247 23.8702 18.5956 23.9937 19.4282L25.1807 19.2522C25.0194 18.1649 24.5128 17.1582 23.7355 16.381L22.887 17.2295ZM20.6883 16.1228C21.5209 16.2463 22.2918 16.6343 22.887 17.2295L23.7355 16.381C22.9582 15.6037 21.9516 15.097 20.8643 14.9358L20.6883 16.1228ZM21.011 13.9466C19.7369 13.7577 18.4358 13.9753 17.2926 14.5685L17.8453 15.6337C18.7644 15.1567 19.8106 14.9817 20.835 15.1336L21.011 13.9466ZM24.4426 15.6739C23.5136 14.7449 22.3105 14.1393 21.011 13.9466L20.835 15.1336C21.8798 15.2886 22.8472 15.7755 23.5941 16.5224L24.4426 15.6739ZM26.1699 19.1055C25.9771 17.806 25.3716 16.6028 24.4426 15.6739L23.5941 16.5224C24.341 17.2693 24.8279 18.2367 24.9828 19.2815L26.1699 19.1055ZM25.548 22.8239C26.1412 21.6807 26.3588 20.3795 26.1699 19.1055L24.9828 19.2815C25.1347 20.3059 24.9598 21.352 24.4828 22.2712L25.548 22.8239ZM22.8658 25.4732C24.0162 24.8942 24.9548 23.9671 25.548 22.8239L24.4828 22.2712C24.0059 23.1904 23.2512 23.9358 22.3263 24.4014L22.8658 25.4732ZM19.14 26.0492C20.4116 26.2538 21.7153 26.0523 22.8658 25.4732L22.3263 24.4014C21.4013 24.8669 20.353 25.029 19.3306 24.8645L19.14 26.0492ZM15.783 24.3335C16.6937 25.2442 17.8684 25.8446 19.14 26.0492L19.3306 24.8645C18.3082 24.7 17.3637 24.2172 16.6315 23.485L15.783 24.3335ZM14.0672 20.9765C14.2719 22.2481 14.8722 23.4228 15.783 24.3335L16.6315 23.485C15.8992 22.7528 15.4165 21.8083 15.252 20.7859L14.0672 20.9765ZM14.6432 17.2507C14.0642 18.4012 13.8626 19.7049 14.0672 20.9765L15.252 20.7859C15.0875 19.7635 15.2495 18.7152 15.7151 17.7902L14.6432 17.2507ZM17.2926 14.5685C16.1494 15.1617 15.2223 16.1003 14.6432 17.2507L15.7151 17.7902C16.1807 16.8652 16.9261 16.1106 17.8453 15.6337L17.2926 14.5685ZM27.0653 13.1512C27.0653 13.2065 27.0205 13.2512 26.9653 13.2512V12.0512C26.3578 12.0512 25.8653 12.5437 25.8653 13.1512H27.0653ZM26.9653 13.0512C27.0205 13.0512 27.0653 13.096 27.0653 13.1512H25.8653C25.8653 13.7587 26.3578 14.2512 26.9653 14.2512V13.0512ZM26.9797 13.0512H26.9653V14.2512H26.9797V13.0512ZM26.8797 13.1512C26.8797 13.096 26.9245 13.0512 26.9797 13.0512V14.2512C27.5872 14.2512 28.0797 13.7587 28.0797 13.1512H26.8797ZM26.9797 13.2512C26.9245 13.2512 26.8797 13.2065 26.8797 13.1512H28.0797C28.0797 12.5437 27.5872 12.0512 26.9797 12.0512V13.2512ZM26.9653 13.2512H26.9797V12.0512H26.9653V13.2512Z" fill="#FFFFF3"/>
</svg>
