<svg width="41" height="40" viewBox="0 0 41 40" fill="none" xmlns="http://www.w3.org/2000/svg">
<circle cx="20.7974" cy="20" r="20" fill="#526B43"/>
<path d="M30.6835 15.2187V14.5512C29.195 14.1733 27.6752 13.4824 26.4517 12.2729C25.2388 11.0974 24.5025 9.60863 24.1348 8.0943C24.0663 8.09439 23.9979 8.09447 23.9296 8.09456C23.7484 8.09477 23.5678 8.09499 23.3874 8.09533C23.3774 10.3685 23.3785 12.6396 23.3796 14.9185C23.3804 16.5655 23.3812 18.2166 23.3778 19.8755L23.3778 19.8848H23.3778C23.3743 20.4038 23.3749 20.935 23.3754 21.4747C23.377 22.9702 23.3786 24.5301 23.2947 26.071C23.2573 27.0155 22.7873 27.8091 22.6116 28.1057C22.5943 28.1349 22.5799 28.1592 22.569 28.1784L22.5519 28.2087L22.5337 28.2383C21.5488 29.8438 19.749 30.9754 17.7711 31.0251C14.7268 31.2506 12.1072 28.8362 11.7021 26.0402L11.6846 25.9197L11.6819 25.798C11.681 25.7562 11.6783 25.7018 11.6751 25.6365C11.6522 25.1688 11.602 24.1422 11.9644 23.2137C12.3903 22.0324 13.1932 20.9746 14.2772 20.2635C15.0702 19.7197 15.9624 19.4234 16.8574 19.3282C16.8579 19.2988 16.8584 19.2695 16.859 19.2401C16.8644 18.9351 16.8697 18.6336 16.874 18.3316C15.535 18.4557 14.2128 19.0113 13.1822 19.9089L13.172 19.9177L13.1618 19.9264C11.9114 20.9862 11.0893 22.5579 10.9208 24.1944C10.9041 24.6453 10.9111 25.1198 10.934 25.6151C11.1233 27.6029 12.3571 29.5063 14.1131 30.5419L30.6835 15.2187ZM30.6835 15.2187C30.0074 15.0678 29.3584 14.8505 28.7525 14.563L28.7363 14.5553L28.7199 14.5479C28.2202 14.3217 27.7239 14.0162 27.1417 13.6356L24.0559 11.6185L24.0474 15.305C24.0447 16.4508 24.0455 17.5893 24.0462 18.7237C24.0477 20.8963 24.0491 23.0536 24.0266 25.2165C23.9505 26.442 23.5414 27.6465 22.8502 28.6259L22.841 28.6389L22.832 28.6521C21.6992 30.3131 19.7088 31.4022 17.7129 31.4356L17.6726 31.4363L17.6322 31.4386C16.4353 31.507 15.196 31.1802 14.1133 30.542L30.6835 15.2187Z" stroke="#FFFFF3" stroke-width="4"/>
</svg>
