<svg width="41" height="40" viewBox="0 0 41 40" fill="none" xmlns="http://www.w3.org/2000/svg">
<circle cx="20.7974" cy="20" r="20" fill="#FFFFF3"/>
<path d="M30.6834 15.2184V14.5509C29.1949 14.1731 27.6751 13.4821 26.4516 12.2727C25.2387 11.0971 24.5024 9.60838 24.1347 8.09406C24.0662 8.09415 23.9978 8.09423 23.9295 8.09431C23.7483 8.09453 23.5677 8.09474 23.3873 8.09508C23.3773 10.3682 23.3784 12.6393 23.3795 14.9183C23.3803 16.5653 23.3811 18.2163 23.3777 19.8753L23.3777 19.8846H23.3777C23.3742 20.4035 23.3748 20.9348 23.3753 21.4744C23.3769 22.9699 23.3785 24.5299 23.2946 26.0708C23.2573 27.0152 22.7872 27.8088 22.6115 28.1055C22.5942 28.1346 22.5798 28.159 22.5689 28.1782L22.5518 28.2084L22.5336 28.238C21.5487 29.8436 19.7489 30.9752 17.771 31.0249C14.7267 31.2504 12.1071 28.8359 11.702 26.0399L11.6845 25.9195L11.6818 25.7977C11.6809 25.756 11.6782 25.7016 11.675 25.6362C11.6521 25.1685 11.6019 24.142 11.9643 23.2134C12.3903 22.0322 13.1931 20.9744 14.2771 20.2632C15.0701 19.7195 15.9623 19.4231 16.8573 19.328C16.8578 19.2986 16.8584 19.2692 16.8589 19.2399C16.8643 18.9349 16.8697 18.6334 16.8739 18.3313C15.5349 18.4554 14.2127 19.0111 13.1821 19.9087L13.1719 19.9175L13.1617 19.9262C11.9113 20.9859 11.0892 22.5577 10.9207 24.1942C10.904 24.6451 10.911 25.1195 10.934 25.6148C11.1232 27.6027 12.357 29.506 14.113 30.5416L30.6834 15.2184ZM30.6834 15.2184C30.0073 15.0676 29.3583 14.8503 28.7524 14.5628L28.7362 14.5551L28.7198 14.5476C28.2201 14.3215 27.7238 14.016 27.1416 13.6353L24.0558 11.6182L24.0473 15.3048C24.0446 16.4505 24.0454 17.5891 24.0461 18.7235C24.0476 20.8961 24.049 23.0534 24.0265 25.2163C23.9504 26.4418 23.5413 27.6463 22.8502 28.6256L22.8409 28.6387L22.8319 28.6519C21.6991 30.3128 19.7087 31.402 17.7128 31.4354L17.6725 31.436L17.6322 31.4383C16.4352 31.5068 15.1959 31.18 14.1132 30.5417L30.6834 15.2184Z" stroke="#526B43" stroke-width="4"/>
</svg>
