<?xml version="1.0" encoding="UTF-8"?>
<svg id="Layer_2" data-name="Layer 2" xmlns="http://www.w3.org/2000/svg" width="1280" height="990.79" viewBox="0 0 1280 990.79">
  <defs>
    <style>
      .cls-1 {
        fill: #174128;
        stroke-width: 0px;
      }
    </style>
  </defs>
  <g id="Layer_1-2" data-name="Layer 1">
    <path class="cls-1" d="M137.9,31.88C31.92-2.27,0,.03,0,.03v807s46.56,97.19,137,116c114,10,139.94-36.28,245-78,100.94-44.28,113.68-70.59,217.84-47.54,98.79,21.86,99.15,120.6,192.41,157.01,116.02,45.3,161.63,45.46,283.74,15.53,85.17-20.88,114-36,147-50,57-35,57-48,57-48v-387c-177.05-118.08-260.62,108.48-421.98-26.35-70.44-58.86-68.33-121.74-131.97-186.49C559.41,102.66,375.5,108.43,137.9,31.88Z"/>
  </g>
</svg>