<?xml version="1.0" encoding="UTF-8"?>
<svg id="Layer_2" data-name="Layer 2" xmlns="http://www.w3.org/2000/svg" width="1280.13" height="625.04" viewBox="0 0 1280.13 625.04">
  <defs>
    <style>
      .cls-1 {
        fill: #174128;
        stroke-width: 0px;
      }
    </style>
  </defs>
  <g id="Layer_1-2" data-name="Layer 1">
    <path class="cls-1" d="M205.66,52.79C126.35,29.81,0,0,0,0v567.53s57.62,33.52,125.3,46.19c79.76,14.93,105.52,21.25,185.86-20.88,80.33-42.14,72.97-63.96,152.89-72.4,83.69-8.84,157.3,44.44,213.08,44.44,76.06,0,200.51-70.36,303.46-47.53,82.86,18.37,98.54,31.53,161.51,60.76,55.02,21.78,138.02,38.78,138.02,38.78V60.88c-132.47-79.41-267.04,47.52-402.49,71.2-66.89,11.7-147.51,12.8-223.61-53.29-125.9-103.92-289.9,37.08-448.37-26.01Z"/>
  </g>
</svg>