<?xml version="1.0" encoding="UTF-8"?>
<svg id="Layer_2" data-name="Layer 2" xmlns="http://www.w3.org/2000/svg" width="1280" height="1011.15" viewBox="0 0 1280 1011.15">
  <defs>
    <style>
      .cls-1 {
        fill: #174128;
        stroke-width: 0px;
      }
    </style>
  </defs>
  <g id="Layer_1-2" data-name="Layer 1">
    <path class="cls-1" d="M168.96,56.42C62.98,22.27,0,0,0,0v878s1.91,43.23,92.35,62.04c106.58,22.17,174.65-14.04,274.78-49.19,98.87-36.85,159.61-91.88,263.78-68.82,98.79,21.86,104.1,110.97,192.41,157.01,105.68,48.96,218.11,35.04,313.68,3.96,83.43-26.92,55-21,143-62-1-70,0-61,0-61v-349c-168-58-229.56,107.05-390.92-27.78-70.44-58.86-80.08-115.22-131.97-186.49-112.11-120.73-350.56-163.76-588.15-240.32Z"/>
  </g>
</svg>