<?xml version="1.0" encoding="UTF-8"?>
<svg id="Layer_2" data-name="Layer 2" xmlns="http://www.w3.org/2000/svg" width="1281.09" height="744.07" viewBox="0 0 1281.09 744.07">
  <defs>
    <style>
      .cls-1 {
        fill: #d7f19f;
        stroke-width: 0px;
      }
    </style>
  </defs>
  <g id="Layer_1-2" data-name="Layer 1">
    <path class="cls-1" d="M1040.56,687.33c92.76,24.7,240.53,56.74,240.53,56.74V134.08s-94.03-71.5-173.18-85.11c-93.29-16.05-146.29,10.9-240.91,35.18-93.37,25.72-139.37,66.62-230.54,49.93-86.47-15.82-87.46-75.93-168.37-113.49-101.54-32.76-176.93-21.59-283.83,0C104,39.15,75.19,71.93,0,85.15v277c154.94,85.36,269.16-80.82,410.36,16.64,53.64,56.36,59.77,87.97,115.46,134.77,145.81,122.53,306.8,118.4,514.75,173.78Z"/>
  </g>
</svg>