<?xml version="1.0" encoding="UTF-8"?>
<svg id="Layer_2" data-name="Layer 2" xmlns="http://www.w3.org/2000/svg" width="1280" height="766.56" viewBox="0 0 1280 766.56">
  <defs>
    <style>
      .cls-1 {
        fill: #d7f19f;
        stroke-width: 0px;
      }
    </style>
  </defs>
  <g id="Layer_1-2" data-name="Layer 1">
    <path class="cls-1" d="M274.55,57.93C168.67,32.71,0,0,0,0l.23,623.87s107.34,73.09,197.69,86.98c106.48,16.37,166.96-4.32,274.51-36.37,105.24-28.95,159.47-67.9,263.53-50.88,98.7,16.15,99.46,75.93,192.21,116,110.05,40.94,164,27.94,258.91,8.94,41.96-10,92.91-20,91.91-40,0-76,0-70,0-70l1-208s0,12-1-37c-109.89-29-163.84,70-285.07-20.3-57.6-51.7-68.25-89.95-131.83-137.78C695.65,110.19,511.91,114.47,274.55,57.93Z"/>
  </g>
</svg>