<?xml version="1.0" encoding="UTF-8"?>
<svg id="Layer_2" data-name="Layer 2" xmlns="http://www.w3.org/2000/svg" width="360" height="919.46" viewBox="0 0 360 919.46">
  <defs>
    <style>
      .cls-1 {
        fill: #ffd9fd;
        stroke-width: 0px;
      }
    </style>
  </defs>
  <g id="Layer_1-2" data-name="Layer 1">
    <g>
      <path class="cls-1" d="M54.01,682.99c-27.07-10.47-54.01-31.47-54.01-31.47v225.56s8.03,25.97,31.13,31.74c27.22,6.8,43.68-5.58,70.19-15.03,25.52-8.27,38.74-11.09,65.74-8.84,27.41,5.29,33.38,5.84,57.2,17,29.63,13.88,47.83,22.96,79.02,13.81,21.75-6.38,26.91-10.56,37.88-18.43,18.28-13.5,18.84-18,18.84-18v-158.06c-44.06-4.5-72,46.97-115.69,17.89-17.99-18.03-42.01-30.55-66.17-39.98-48.33-18.86-63.46,7.27-124.14-16.2Z"/>
      <path class="cls-1" d="M54.01,31.47C26.94,21,0,0,0,0v225.56s8.03,25.97,31.13,31.74c27.22,6.8,43.68-5.58,70.19-15.03,25.52-8.27,38.74-11.09,65.74-8.84,27.41,5.29,33.38,5.84,57.2,17,29.63,13.88,47.83,22.96,79.02,13.81,21.75-6.38,26.91-10.56,37.88-18.43,18.28-13.5,18.84-18,18.84-18V69.75c-44.06-4.5-72,46.97-115.69,17.89-17.99-18.03-42.01-30.55-66.17-39.98-48.33-18.86-63.46,7.27-124.14-16.2Z"/>
      <rect class="cls-1" y="197.52" width="360" height="573"/>
    </g>
  </g>
</svg>