<?xml version="1.0" encoding="UTF-8"?>
<svg id="Layer_2" data-name="Layer 2" xmlns="http://www.w3.org/2000/svg" width="390" height="363.56" viewBox="0 0 390 363.56">
  <defs>
    <style>
      .cls-1 {
        fill: #d7f19f;
        stroke-width: 0px;
      }
    </style>
  </defs>
  <g id="Layer_1-2" data-name="Layer 1">
    <g>
      <path class="cls-1" d="M83.65,147.65C51.39,139.97,0,130,0,130l.07,190.08s32.71,22.27,60.23,26.5c32.44,4.99,50.87-1.32,83.64-11.08,32.07-8.82,48.59-20.69,80.29-15.5,30.07,4.92,30.31,23.14,58.56,35.34,33.53,12.47,49.97,8.51,78.89,2.72,12.78-3.05,28.31-6.09,28-12.19,0-23.16,0-21.33,0-21.33l.3-63.38s0,3.66-.3-11.27c-33.48-8.84-49.92,21.33-86.86-6.19-17.55-15.75-20.8-27.41-40.17-41.98-50.72-38.16-106.7-36.86-179.02-54.09Z"/>
      <path class="cls-1" d="M83.65,17.65C51.39,9.97,0,0,0,0l.07,190.08s32.71,22.27,60.23,26.5c32.44,4.99,50.87-1.32,83.64-11.08,32.07-8.82,48.59-20.69,80.29-15.5,30.07,4.92,30.31,23.14,58.56,35.34,33.53,12.47,49.97,8.51,78.89,2.72,12.78-3.05,28.31-6.09,28-12.19,0-23.16,0-21.33,0-21.33l.3-63.38s0,3.66-.3-11.27c-33.48-8.84-49.92,21.33-86.86-6.19-17.55-15.75-20.8-27.41-40.17-41.98-50.72-38.16-106.7-36.86-179.02-54.09Z"/>
      <rect class="cls-1" y="146.53" width="390" height="122"/>
    </g>
  </g>
</svg>