<?xml version="1.0" encoding="UTF-8"?>
<svg id="Layer_2" data-name="Layer 2" xmlns="http://www.w3.org/2000/svg" width="390" height="1150.37" viewBox="0 0 390 1150.37">
  <defs>
    <style>
      .cls-1 {
        fill: #ffd9fd;
        stroke-width: 0px;
      }
    </style>
  </defs>
  <g id="Layer_1-2" data-name="Layer 1">
    <g>
      <path class="cls-1" d="M388.17,30.44c.91-.61,1.83-2.73,1.83-2.44l-.3,165.93c0,14.61-14.75,15.43-36.53,13.4-24.86-2.32-34.3-11.26-58.81-6.44-19.9,3.91-50.06,20.57-69.53,26.29-37.4,10.99-70.9,11.22-76.83,12.16-5.93.94-39.77-2.18-63.37,4.98-24.58,7.45-39.12,26.3-64.27,21.2-15.98-3.24-20.36-13.12-20.36-13.12V3.04l47.49,21.62c6.11,3.05,17.94,4.42,24.96,5.18l22.53-.91c15.23-1.29,60.22-15.56,75.5-20.7l17.05-5.48c6.67-1.56,19.94-2.74,26.79-2.74l15.53,2.13c9.98,2.89,12.81,4.71,19.38,9.21,2.32,1.59,4.58,3.29,6.74,5.09l14.67,12.19c24.96,17.05,41.1,17.66,67.59,14.92,16.6-1.72,25.57-4.26,40.8-8.52,2.89-.81,4.57-1.83,7.61-3.35"/>
      <path class="cls-1" d="M388.17,914.44c.91-.61,1.83-2.73,1.83-2.44l-.3,165.93c0,14.61-14.75,15.43-36.53,13.4-24.86-2.32-34.3-11.26-58.81-6.44-19.9,3.91-50.06,20.57-69.53,26.29-37.4,10.99-70.9,11.22-76.83,12.16-5.93.94-39.77-2.18-63.37,4.98-24.58,7.45-39.12,26.3-64.27,21.2-15.98-3.24-20.36-13.12-20.36-13.12v-249.34l47.49,21.62c6.11,3.05,17.94,4.42,24.96,5.18l22.53-.91c15.23-1.29,60.22-15.56,75.5-20.7l17.05-5.48c6.67-1.56,19.94-2.74,26.79-2.74l15.53,2.13c9.98,2.89,12.81,4.71,19.38,9.21,2.32,1.59,4.58,3.29,6.74,5.09l14.67,12.19c24.96,17.05,41.1,17.66,67.59,14.92,16.6-1.72,25.57-4.26,40.8-8.52,2.89-.81,4.57-1.83,7.61-3.35"/>
      <rect class="cls-1" y="170" width="390" height="775"/>
    </g>
  </g>
</svg>