<?xml version="1.0" encoding="UTF-8"?>
<svg id="Layer_2" data-name="Layer 2" xmlns="http://www.w3.org/2000/svg" width="390" height="1225.25" viewBox="0 0 390 1225.25">
  <defs>
    <style>
      .cls-1 {
        fill: #174128;
        stroke-width: 0px;
      }
    </style>
  </defs>
  <g id="Layer_1-2" data-name="Layer 1">
    <g>
      <path class="cls-1" d="M42.02,934.03c-32.29-10.37-42.02-9.67-42.02-9.67v245.09s14.19,29.52,41.74,35.23c34.73,3.04,42.64-11.02,74.65-23.69,30.75-13.45,34.64-21.44,66.37-14.44,30.1,6.64,30.21,36.63,58.63,47.68,35.35,13.76,49.25,13.81,86.45,4.72,25.95-6.34,34.73-10.93,44.79-15.19,17.37-10.63,17.37-14.58,17.37-14.58v-117.53c-53.94-35.86-79.41,32.95-128.57-8-21.46-17.88-20.82-36.97-40.21-56.64-50.77-51.49-106.81-49.73-179.2-72.98Z"/>
      <path class="cls-1" d="M42.02,9.71C9.72-.69,0,0,0,0v245.88s14.19,29.61,41.74,35.34c34.73,3.05,42.64-11.05,74.65-23.77,30.75-13.49,34.64-21.51,66.37-14.49,30.1,6.66,30.21,36.74,58.63,47.84,35.35,13.8,49.25,13.85,86.45,4.73,25.95-6.36,34.73-10.97,44.79-15.23,17.37-10.66,17.37-14.62,17.37-14.62v-117.91c-53.94-35.98-79.41,33.05-128.57-8.03-21.46-17.93-20.82-37.09-40.21-56.82C170.45,31.28,114.41,33.04,42.02,9.71Z"/>
      <rect class="cls-1" y="200.25" width="390" height="888"/>
    </g>
  </g>
</svg>