<?xml version="1.0" encoding="UTF-8"?>
<svg id="Layer_2" data-name="Layer 2" xmlns="http://www.w3.org/2000/svg" width="390" height="470" viewBox="0 0 390 470">
  <defs>
    <style>
      .cls-1 {
        fill: #174128;
        stroke-width: 0px;
      }
    </style>
  </defs>
  <g id="Layer_1-2" data-name="Layer 1">
    <g>
      <path class="cls-1" d="M62.65,13.02C38.49,7.35,0,0,0,0v140.01s17.56,8.27,38.17,11.4c24.3,3.68,32.15,5.24,56.62-5.15,24.47-10.39,22.23-15.78,46.58-17.86,25.5-2.18,47.92,10.96,64.92,10.96,23.17,0,61.09-17.36,92.45-11.73,25.25,4.53,30.02,7.78,49.21,14.99,16.76,5.37,42.05,9.57,42.05,9.57V15.02c-40.36-19.59-81.35,11.72-122.62,17.57-20.38,2.89-44.94,3.16-68.12-13.15-38.36-25.64-88.32,9.15-136.6-6.42Z"/>
      <path class="cls-1" d="M62.65,328.83c-24.16-5.67-62.65-13.02-62.65-13.02v140.01s17.56,8.27,38.17,11.4c24.3,3.68,32.15,5.24,56.62-5.15,24.47-10.39,22.23-15.78,46.58-17.86,25.5-2.18,47.92,10.96,64.92,10.96,23.17,0,61.09-17.36,92.45-11.73,25.25,4.53,30.02,7.78,49.21,14.99,16.76,5.37,42.05,9.57,42.05,9.57v-137.16c-40.36-19.59-81.35,11.72-122.62,17.57-20.38,2.89-44.94,3.16-68.12-13.15-38.36-25.64-88.32,9.15-136.6-6.42Z"/>
      <rect class="cls-1" y="76.83" width="390" height="291.51"/>
    </g>
  </g>
</svg>