<?xml version="1.0" encoding="UTF-8"?>
<svg id="Layer_2" data-name="Layer 2" xmlns="http://www.w3.org/2000/svg" width="390" height="900" viewBox="0 0 390 900">
  <defs>
    <style>
      .cls-1 {
        fill: #ffd9fd;
        stroke-width: 0px;
      }
    </style>
  </defs>
  <g id="Layer_1-2" data-name="Layer 1">
    <g>
      <path class="cls-1" d="M63.11,706.29c-24.34-7.1-63.11-16.32-63.11-16.32v171.29s21.63,8.71,42.35,13.77c24.38,6.75,36.87,7.03,68.25,5.06,26.74-3.23,41.13-9.56,67.03-6.46,23.16,5.9,15.84,10.12,38.09,19.95,24.68,10.4,49.22,7.08,76.78-2.25,19.36-7.53,39.69-15.87,59.41-19.67,20.72-2.81,38.09,6.75,38.09,6.75v-40.56s-17.73-19.45-32.82-28.56c-40.65-24.55-91.69,13.75-128.74-14.28-16.17-12.23-15.68-25.3-30.29-38.75-38.25-35.23-80.49-34.05-135.05-49.97Z"/>
      <path class="cls-1" d="M63.11,16.32C38.77,9.21,0,0,0,0v171.29s21.63,8.71,42.35,13.77c24.38,6.75,36.87,7.03,68.25,5.06,26.74-3.23,41.13-9.56,67.03-6.46,23.16,5.9,15.84,10.12,38.09,19.95,24.68,10.4,49.22,7.08,76.78-2.25,19.36-7.53,39.69-15.87,59.41-19.67,20.72-2.81,38.09,6.75,38.09,6.75v-40.56s-17.73-19.45-32.82-28.56c-40.65-24.55-91.69,13.75-128.74-14.28-16.17-12.23-15.68-25.3-30.29-38.75C159.9,31.06,117.66,32.24,63.11,16.32Z"/>
      <rect class="cls-1" x="0" y="166.46" width="390" height="676.13"/>
    </g>
  </g>
</svg>