<?xml version="1.0" encoding="UTF-8"?>
<svg id="Layer_2" data-name="Layer 2" xmlns="http://www.w3.org/2000/svg" width="1280" height="747.3" viewBox="0 0 1280 747.3">
  <defs>
    <style>
      .cls-1 {
        fill: #ffd9fd;
        stroke-width: 0px;
      }
    </style>
  </defs>
  <g id="Layer_1-2" data-name="Layer 1">
    <path class="cls-1" d="M207.12,58.06C127.24,32.79,0,0,0,0v609.46s71,31,139,49c80,24,121,25,224,18,87.75-11.48,135-34,220-23,76,21,52,36,125,71,81,37,161.54,25.2,252-8,63.54-26.8,130.25-56.47,195-70,68-10,125,24,125,24v-144.3s-58.2-69.19-107.7-101.6c-133.42-87.34-300.94,48.91-422.53-50.8-53.08-43.53-51.47-90.01-99.42-137.89-125.55-125.37-264.18-121.15-443.24-177.81Z"/>
  </g>
</svg>