<?xml version="1.0" encoding="UTF-8"?>
<svg id="Layer_2" data-name="Layer 2" xmlns="http://www.w3.org/2000/svg" width="1280" height="952.68" viewBox="0 0 1280 952.68">
  <defs>
    <style>
      .cls-1 {
        fill: #ffd9fd;
        stroke-width: 0px;
      }
    </style>
  </defs>
  <g id="Layer_1-2" data-name="Layer 1">
    <path class="cls-1" d="M192.02,111.89C95.78,74.67,0,0,0,0v802s28.56,92.33,110.68,112.85c96.79,24.18,155.32-19.85,249.56-53.44,90.76-29.41,137.76-39.41,233.76-31.41,97.46,18.82,118.69,20.77,203.37,60.45,105.35,49.36,170.04,81.62,280.96,49.09,77.35-22.69,95.67-37.54,134.67-65.54,65-48,67-64,67-64V248c-156.67-16.02-256,167-411.34,63.63-63.95-64.1-149.35-108.61-235.26-142.15-171.83-67.07-225.63,25.84-441.38-57.59Z"/>
  </g>
</svg>