<?xml version="1.0" encoding="UTF-8"?>
<svg id="Layer_2" data-name="Layer 2" xmlns="http://www.w3.org/2000/svg" width="1281" height="874.93" viewBox="0 0 1281 874.93">
  <defs>
    <style>
      .cls-1 {
        fill: #ffd9fd;
        stroke-width: 0px;
      }
    </style>
  </defs>
  <g id="Layer_1-2" data-name="Layer 1">
    <path class="cls-1" d="M1275,100c3-2,6-8.97,6-8l-1,545c0,48-48.44,50.69-120,44-81.67-7.63-112.65-37-193.18-21.17-65.38,12.86-164.44,67.55-228.36,86.34-122.85,36.1-232.89,36.87-252.36,39.95-19.47,3.08-130.62-7.14-208.14,16.35-80.73,24.46-128.5,86.39-211.09,69.62C14.37,861.44,0,829,0,829V10l156,71c20.06,10.03,58.93,14.52,82,17l74-3c50.02-4.23,197.81-51.12,248-68l56-18c21.9-5.13,65.51-9,88-9l51,7c32.8,9.49,42.09,15.46,63.66,30.25,7.63,5.23,15.03,10.81,22.15,16.72l48.19,40.04c82,56,135,58,222,49,54.53-5.64,84-14,134-28,9.48-2.66,15-6,25-11"/>
  </g>
</svg>